# xmcd CD database file
#
# Track frame offsets:
#	150
#	19670
#	42607
#	66815
#	85837
#	97065
#	117172
#	129697
#	152825
#	176520
#	209597
#	240887
#	263162
#
# Disc length: 3868 seconds
#
# Revision: 0
# Processed by: cddbd v1.5.1PL0 Copyright (c) Steve Scherf et al.
# Submitted via: CDex 1.50
#
DISCID=b10f1a0d
DTITLE=Brass Highlights - Disc 2 - Trumpets 2
DYEAR=1900
DGENRE=Jazz
TTITLE0=DeParis, Sidney - The Call Of The Blues
TTITLE1=Anderson, Cat - Don´t Get Around Much Anymore
TTITLE2=Navarro, Fats - Double Talk
TTITLE3=Davis, Miles - Dear Old Stockholm
TTITLE4=Terry, Clark - Star Dust
TTITLE5=Coles, Jonny - Davenport Blues
TTITLE6=Baker, Chet - The Thrill Is Gone
TTITLE7=Adderley, Nat - Work Song
TTITLE8=Hubbard, Freddie - Cunga Black
TTITLE9=Shaw, Woody - The Moontrane
TTITLE10=Henderson, Eddie - Dark Shadow
TTITLE11=Kajifes, Goran - CCL
TTITLE12=Payton, Nicholas - East St. Louis Toodle-oo
EXTD=
EXTT0=
EXTT1=
EXTT2=
EXTT3=
EXTT4=
EXTT5=
EXTT6=
EXTT7=
EXTT8=
EXTT9=
EXTT10=
EXTT11=
EXTT12=
PLAYORDER=
